<?xml version="1.0" standalone="no"?>
<!DOCTYPE svg PUBLIC "-//W3C//DTD SVG 20010904//EN"
 "http://www.w3.org/TR/2001/REC-SVG-20010904/DTD/svg10.dtd">
<svg version="1.0" xmlns="http://www.w3.org/2000/svg"
 width="512.000000pt" height="512.000000pt" viewBox="0 0 512.000000 512.000000"
 preserveAspectRatio="xMidYMid meet">
<metadata>
Created by potrace 1.14, written by Peter Selinger 2001-2017
</metadata>
<g transform="translate(0.000000,512.000000) scale(0.100000,-0.100000)"
fill="#000000" stroke="none">
<path d="M1530 4937 c-67 -20 -217 -89 -230 -106 -3 -3 -23 -20 -45 -36 -42
-32 -134 -126 -149 -153 -5 -10 -13 -19 -16 -22 -17 -11 -89 -159 -105 -215
-18 -64 -20 -71 -30 -131 -3 -22 -6 -794 -6 -1716 -1 -1234 2 -1692 11 -1735
63 -315 280 -548 595 -640 72 -20 265 -25 350 -9 302 60 544 283 625 578 11
41 22 92 24 114 3 21 5 392 6 824 2 683 4 777 15 720 76 -371 391 -636 765
-644 224 -5 432 78 588 234 53 52 122 141 122 156 0 3 9 17 20 32 25 35 77
192 85 262 20 154 -4 305 -69 444 -110 236 -324 401 -586 452 -65 13 -262 6
-320 -10 -30 -9 -64 -18 -76 -21 -43 -10 -162 -75 -229 -125 -151 -114 -257
-282 -300 -475 -11 -52 -13 46 -15 720 0 429 -3 800 -6 825 -36 317 -281 599
-588 679 -116 30 -330 29 -436 -2z"/>
</g>
</svg>
